Adsworth-24PTG1XT0.ufo
<glyph name="A" format="2">
  <advance width="580.0"/>
  <outline>
    <contour>
      <point x="420.0" y="200.0" type="line"/>
      <point x="140.0" y="200.0" type="line"/>
      <point x="140.0" y="485.0" type="line"/>
      <point x="420.0" y="485.0" type="line"/>
    </contour>
    <contour>
      <point x="510.0" y="1500.0" type="line"/>
      <point x="620.0" y="0.0" type="line"/>
      <point x="197.0" y="0.0" type="line"/>
      <point x="300.0" y="807.0" type="line"/>
      <point x="278.0" y="807.0" type="line"/>
      <point x="406.0" y="0.0" type="line"/>
      <point x="-40.0" y="0.0" type="line"/>
      <point x="90.0" y="1500.0" type="line"/>
    </contour>
  </outline>
</glyph>
<glyph name="B" format="2">
  <advance width="792.0"/>
  <outline>
    <contour>
      <point x="61.0" y="0.0" type="line"/>
      <point x="61.0" y="1500.0" type="line"/>
      <point x="522.0" y="1500.0" type="line"/>
      <point x="522.0" y="0.0" type="line"/>
    </contour>
    <contour>
      <point x="546.0" y="781.0" type="line"/>
      <point x="607.0" y="781.0"/>
      <point x="791.0" y="648.0"/>
      <point x="791.0" y="508.0" type="qcurve" smooth="yes"/>
      <point x="791.0" y="323.0" type="line" smooth="yes"/>
      <point x="791.0" y="179.0"/>
      <point x="608.0" y="0.0"/>
      <point x="471.0" y="0.0" type="qcurve" smooth="yes"/>
      <point x="302.0" y="0.0" type="line"/>
      <point x="302.0" y="282.0" type="line"/>
      <point x="248.0" y="282.0" type="line" smooth="yes"/>
      <point x="304.0" y="282.0"/>
      <point x="333.0" y="346.0"/>
      <point x="333.0" y="392.0" type="qcurve" smooth="yes"/>
      <point x="333.0" y="510.0" type="line" smooth="yes"/>
      <point x="333.0" y="574.0"/>
      <point x="291.0" y="641.0"/>
      <point x="222.0" y="641.0" type="qcurve" smooth="yes"/>
      <point x="302.0" y="641.0" type="line"/>
      <point x="302.0" y="882.0" type="line"/>
      <point x="302.0" y="882.0" type="line" smooth="yes"/>
      <point x="342.0" y="882.0"/>
      <point x="347.0" y="926.0"/>
      <point x="347.0" y="965.0" type="qcurve" smooth="yes"/>
      <point x="347.0" y="1165.0" type="line" smooth="yes"/>
      <point x="347.0" y="1192.0"/>
      <point x="330.0" y="1207.0"/>
      <point x="316.0" y="1207.0" type="qcurve" smooth="yes"/>
      <point x="302.0" y="1207.0" type="line"/>
      <point x="302.0" y="1500.0" type="line"/>
      <point x="470.0" y="1500.0" type="line" smooth="yes"/>
      <point x="611.0" y="1500.0"/>
      <point x="788.0" y="1345.0"/>
      <point x="788.0" y="1214.0" type="qcurve" smooth="yes"/>
      <point x="788.0" y="1021.0" type="line" smooth="yes"/>
      <point x="788.0" y="871.0"/>
      <point x="621.0" y="764.0"/>
      <point x="499.0" y="764.0" type="qcurve"/>
    </contour>
  </outline>
</glyph>
<glyph name="C" format="2">
  <advance width="727.0"/>
  <outline>
    <contour>
      <point x="366.0" y="321.0" type="line" smooth="yes"/>
      <point x="301.0" y="321.0"/>
      <point x="217.0" y="337.0"/>
      <point x="213.0" y="374.0" type="qcurve" smooth="yes"/>
      <point x="212.0" y="652.0" type="line"/>
      <point x="682.0" y="652.0" type="line"/>
      <point x="679.0" y="293.0" type="line" smooth="yes"/>
      <point x="675.0" y="158.0"/>
      <point x="534.0" y="-14.0"/>
      <point x="392.0" y="-14.0" type="qcurve" smooth="yes"/>
      <point x="358.0" y="-14.0" type="line" smooth="yes"/>
      <point x="219.0" y="-14.0"/>
      <point x="52.0" y="195.0"/>
      <point x="52.0" y="377.0" type="qcurve" smooth="yes"/>
      <point x="52.0" y="1128.0" type="line" smooth="yes"/>
      <point x="52.0" y="1308.0"/>
      <point x="213.0" y="1514.0"/>
      <point x="347.0" y="1514.0" type="qcurve" smooth="yes"/>
      <point x="386.0" y="1514.0" type="line" smooth="yes"/>
      <point x="519.0" y="1514.0"/>
      <point x="675.0" y="1349.0"/>
      <point x="682.0" y="1200.0" type="qcurve" smooth="yes"/>
      <point x="689.0" y="847.0" type="line"/>
      <point x="212.0" y="847.0" type="line"/>
      <point x="213.0" y="1146.0" type="line" smooth="yes"/>
      <point x="220.0" y="1179.0"/>
      <point x="288.0" y="1172.0"/>
      <point x="375.0" y="1172.0" type="qcurve" smooth="yes"/>
      <point x="363.0" y="1172.0" type="line" smooth="yes"/>
      <point x="443.0" y="1172.0"/>
      <point x="569.0" y="1241.0"/>
      <point x="569.0" y="1247.0" type="qcurve" smooth="yes"/>
      <point x="569.0" y="249.0" type="line" smooth="yes"/>
      <point x="569.0" y="256.0"/>
      <point x="436.0" y="321.0"/>
      <point x="354.0" y="321.0" type="qcurve" smooth="yes"/>
    </contour>
  </outline>
</glyph>
<glyph name="E" format="2">
  <advance width="660.0"/>
  <outline>
    <contour>
      <point x="40.0" y="0.0" type="line"/>
      <point x="40.0" y="1500.0" type="line"/>
      <point x="520.0" y="1500.0" type="line"/>
      <point x="520.0" y="0.0" type="line"/>
    </contour>
    <contour>
      <point x="616.0" y="620.0" type="line"/>
      <point x="280.0" y="620.0" type="line"/>
      <point x="280.0" y="965.0" type="line"/>
      <point x="616.0" y="965.0" type="line"/>
    </contour>
    <contour>
      <point x="676.0" y="1155.0" type="line"/>
      <point x="280.0" y="1155.0" type="line"/>
      <point x="280.0" y="1500.0" type="line"/>
      <point x="676.0" y="1500.0" type="line"/>
    </contour>
    <contour>
      <point x="676.0" y="0.0" type="line"/>
      <point x="280.0" y="0.0" type="line"/>
      <point x="280.0" y="345.0" type="line"/>
      <point x="676.0" y="345.0" type="line"/>
    </contour>
  </outline>
</glyph>
<glyph name="F" format="2">
  <advance width="627.0"/>
  <outline>
    <contour>
      <point x="40.0" y="0.0" type="line"/>
      <point x="40.0" y="1500.0" type="line"/>
      <point x="520.0" y="1500.0" type="line"/>
      <point x="520.0" y="0.0" type="line"/>
    </contour>
    <contour>
      <point x="626.0" y="590.0" type="line"/>
      <point x="280.0" y="590.0" type="line"/>
      <point x="280.0" y="935.0" type="line"/>
      <point x="626.0" y="935.0" type="line"/>
    </contour>
    <contour>
      <point x="616.0" y="1155.0" type="line"/>
      <point x="280.0" y="1155.0" type="line"/>
      <point x="280.0" y="1500.0" type="line"/>
      <point x="616.0" y="1500.0" type="line"/>
    </contour>
  </outline>
</glyph>
<glyph name="H" format="2">
  <advance width="852.0"/>
  <outline>
    <contour>
      <point x="46.0" y="0.0" type="line"/>
      <point x="46.0" y="1500.0" type="line"/>
      <point x="526.0" y="1500.0" type="line"/>
      <point x="526.0" y="0.0" type="line"/>
    </contour>
    <contour>
      <point x="326.0" y="0.0" type="line"/>
      <point x="326.0" y="1500.0" type="line"/>
      <point x="806.0" y="1500.0" type="line"/>
      <point x="806.0" y="0.0" type="line"/>
    </contour>
    <contour>
      <point x="566.0" y="620.0" type="line"/>
      <point x="286.0" y="620.0" type="line"/>
      <point x="286.0" y="965.0" type="line"/>
      <point x="566.0" y="965.0" type="line"/>
    </contour>
  </outline>
</glyph>
<glyph name="I" format="2">
  <advance width="420.0"/>
  <outline>
    <contour>
      <point x="-27.0" y="0.0" type="line"/>
      <point x="-27.0" y="1500.0" type="line"/>
      <point x="447.0" y="1500.0" type="line"/>
      <point x="447.0" y="0.0" type="line"/>
    </contour>
    <contour>
      <point x="172.0" y="0.0" type="line"/>
      <point x="252.0" y="0.0" type="line"/>
      <point x="252.0" y="345.0" type="line"/>
      <point x="172.0" y="345.0" type="line"/>
    </contour>
    <contour>
      <point x="172.0" y="1155.0" type="line"/>
      <point x="252.0" y="1155.0" type="line"/>
      <point x="252.0" y="1500.0" type="line"/>
      <point x="172.0" y="1500.0" type="line"/>
    </contour>
  </outline>
</glyph>
<glyph name="J" format="2">
  <advance width="676.0"/>
  <outline>
    <contour>
      <point x="646.0" y="341.0" type="line" smooth="yes"/>
      <point x="646.0" y="144.0"/>
      <point x="452.0" y="-15.0"/>
      <point x="322.0" y="-15.0" type="qcurve" smooth="yes"/>
      <point x="312.0" y="-15.0" type="line" smooth="yes"/>
      <point x="152.0" y="-15.0"/>
      <point x="-14.0" y="138.0"/>
      <point x="-12.0" y="292.0" type="qcurve" smooth="yes"/>
      <point x="-11.0" y="474.0" type="line"/>
      <point x="360.0" y="474.0" type="line"/>
      <point x="360.0" y="322.0" type="line" smooth="yes"/>
      <point x="360.0" y="311.0"/>
      <point x="322.0" y="313.0"/>
      <point x="278.0" y="313.0" type="qcurve" smooth="yes"/>
      <point x="273.0" y="313.0" type="line" smooth="yes"/>
      <point x="227.0" y="313.0"/>
      <point x="185.0" y="259.0"/>
      <point x="185.0" y="278.0" type="qcurve" smooth="yes"/>
      <point x="185.0" y="1500.0" type="line"/>
      <point x="646.0" y="1500.0" type="line"/>
    </contour>
  </outline>
</glyph>
<glyph name="L" format="2">
  <advance width="633.0"/>
  <outline>
    <contour>
      <point x="39.0" y="0.0" type="line"/>
      <point x="39.0" y="1500.0" type="line"/>
      <point x="525.0" y="1500.0" type="line"/>
      <point x="525.0" y="0.0" type="line"/>
    </contour>
    <contour>
      <point x="606.0" y="0.0" type="line"/>
      <point x="282.0" y="0.0" type="line"/>
      <point x="282.0" y="345.0" type="line"/>
      <point x="606.0" y="345.0" type="line"/>
    </contour>
  </outline>
</glyph>
<glyph name="M" format="2">
  <advance width="1077.0"/>
  <outline>
    <contour>
      <point x="40.0" y="0.0" type="line"/>
      <point x="40.0" y="1500.0" type="line"/>
      <point x="591.0" y="1500.0" type="line"/>
      <point x="565.0" y="695.0" type="line"/>
      <point x="566.0" y="695.0" type="line"/>
      <point x="524.0" y="1500.0" type="line"/>
      <point x="1042.0" y="1500.0" type="line"/>
      <point x="1042.0" y="0.0" type="line"/>
      <point x="636.0" y="0.0" type="line"/>
      <point x="636.0" y="555.0" type="line"/>
      <point x="735.0" y="0.0" type="line"/>
      <point x="357.0" y="0.0" type="line"/>
      <point x="456.0" y="555.0" type="line"/>
      <point x="456.0" y="0.0" type="line"/>
    </contour>
  </outline>
</glyph>
<glyph name="P" format="2">
  <advance width="759.0"/>
  <outline>
    <contour>
      <point x="39.0" y="0.0" type="line"/>
      <point x="39.0" y="1500.0" type="line"/>
      <point x="520.0" y="1500.0" type="line"/>
      <point x="520.0" y="0.0" type="line"/>
    </contour>
    <contour>
      <point x="467.0" y="457.0" type="qcurve" smooth="yes"/>
      <point x="440.0" y="457.0" type="line"/>
      <point x="440.0" y="762.0" type="line"/>
      <point x="321.0" y="762.0" type="line" smooth="yes"/>
      <point x="307.0" y="762.0"/>
      <point x="281.0" y="759.0"/>
      <point x="281.0" y="785.0" type="qcurve" smooth="yes"/>
      <point x="281.0" y="1130.0" type="line" smooth="yes"/>
      <point x="281.0" y="1170.0"/>
      <point x="307.0" y="1181.0"/>
      <point x="324.0" y="1181.0" type="qcurve" smooth="yes"/>
      <point x="440.0" y="1181.0" type="line"/>
      <point x="440.0" y="1500.0" type="line"/>
      <point x="471.0" y="1500.0" type="line" smooth="yes"/>
      <point x="612.0" y="1500.0"/>
      <point x="764.0" y="1344.0"/>
      <point x="764.0" y="1197.0" type="qcurve" smooth="yes"/>
      <point x="764.0" y="773.0" type="line" smooth="yes"/>
      <point x="764.0" y="621.0"/>
      <point x="586.0" y="457.0"/>
    </contour>
  </outline>
</glyph>
<glyph name="Q" format="2">
  <advance width="763.0"/>
  <outline>
    <contour>
      <point x="380.0" y="5.0" type="line" smooth="yes"/>
      <point x="232.0" y="5.0"/>
      <point x="48.0" y="208.0"/>
      <point x="48.0" y="386.0" type="qcurve" smooth="yes"/>
      <point x="48.0" y="1123.0" type="line" smooth="yes"/>
      <point x="48.0" y="1291.0"/>
      <point x="229.0" y="1514.0"/>
      <point x="378.0" y="1514.0" type="qcurve" smooth="yes"/>
      <point x="381.0" y="1514.0" type="line" smooth="yes"/>
      <point x="534.0" y="1514.0"/>
      <point x="715.0" y="1291.0"/>
      <point x="715.0" y="1123.0" type="qcurve" smooth="yes"/>
      <point x="715.0" y="386.0" type="line" smooth="yes"/>
      <point x="715.0" y="208.0"/>
      <point x="537.0" y="5.0"/>
      <point x="383.0" y="5.0" type="qcurve" smooth="yes"/>
    </contour>
    <contour>
      <point x="380.0" y="303.0" type="line" smooth="yes"/>
      <point x="291.0" y="303.0"/>
      <point x="197.0" y="227.0"/>
      <point x="197.0" y="248.0" type="qcurve" smooth="yes"/>
      <point x="197.0" y="1244.0" type="line" smooth="yes"/>
      <point x="197.0" y="1265.0"/>
      <point x="290.0" y="1199.0"/>
      <point x="380.0" y="1199.0" type="qcurve" smooth="yes"/>
      <point x="384.0" y="1199.0" type="line" smooth="yes"/>
      <point x="468.0" y="1199.0"/>
      <point x="566.0" y="1265.0"/>
      <point x="566.0" y="1244.0" type="qcurve" smooth="yes"/>
      <point x="566.0" y="248.0" type="line" smooth="yes"/>
      <point x="566.0" y="227.0"/>
      <point x="469.0" y="303.0"/>
      <point x="384.0" y="303.0" type="qcurve" smooth="yes"/>
    </contour>
    <contour>
      <point x="303.0" y="288.0" type="line"/>
      <point x="766.0" y="193.0" type="line"/>
      <point x="766.0" y="-132.0" type="line"/>
      <point x="304.0" y="8.0" type="line"/>
    </contour>
  </outline>
</glyph>
<glyph name="R" format="2">
  <advance width="718.0"/>
  <outline>
    <contour>
      <point x="40.0" y="0.0" type="line"/>
      <point x="40.0" y="1500.0" type="line"/>
      <point x="506.0" y="1500.0" type="line"/>
      <point x="506.0" y="0.0" type="line"/>
    </contour>
    <contour>
      <point x="588.0" y="603.0" type="qcurve" smooth="yes"/>
      <point x="286.0" y="603.0" type="line"/>
      <point x="286.0" y="883.0" type="line"/>
      <point x="386.0" y="883.0" type="line" smooth="yes"/>
      <point x="345.0" y="883.0"/>
      <point x="326.0" y="868.0"/>
      <point x="326.0" y="852.0" type="qcurve" smooth="yes"/>
      <point x="326.0" y="1192.0" type="line" smooth="yes"/>
      <point x="326.0" y="1194.0"/>
      <point x="346.0" y="1197.0"/>
      <point x="376.0" y="1197.0" type="qcurve" smooth="yes"/>
      <point x="286.0" y="1197.0" type="line"/>
      <point x="286.0" y="1500.0" type="line"/>
      <point x="573.0" y="1500.0" type="line" smooth="yes"/>
      <point x="667.0" y="1500.0"/>
      <point x="802.0" y="1383.0"/>
      <point x="802.0" y="1257.0" type="qcurve" smooth="yes"/>
      <point x="802.0" y="822.0" type="line" smooth="yes"/>
      <point x="802.0" y="700.0"/>
      <point x="694.0" y="603.0"/>
    </contour>
    <contour>
      <point x="613.0" y="813.0" type="line"/>
      <point x="819.0" y="0.0" type="line"/>
      <point x="331.0" y="0.0" type="line"/>
      <point x="250.0" y="624.0" type="line"/>
    </contour>
  </outline>
</glyph>
<glyph name="T" format="2">
  <advance width="608.0"/>
  <outline>
    <contour>
      <point x="74.0" y="0.0" type="line"/>
      <point x="74.0" y="1430.0" type="line"/>
      <point x="539.0" y="1430.0" type="line"/>
      <point x="539.0" y="0.0" type="line"/>
    </contour>
    <contour>
      <point x="614.0" y="1155.0" type="line"/>
      <point x="-6.0" y="1155.0" type="line"/>
      <point x="-6.0" y="1500.0" type="line"/>
      <point x="614.0" y="1500.0" type="line"/>
    </contour>
  </outline>
</glyph>
<glyph name="W" format="2">
  <advance width="1002.0"/>
  <outline>
    <contour>
      <point x="211.0" y="0.0" type="line"/>
      <point x="-4.0" y="1500.0" type="line"/>
      <point x="455.0" y="1500.0" type="line"/>
      <point x="428.0" y="1063.0" type="line"/>
      <point x="369.0" y="1500.0" type="line"/>
      <point x="679.0" y="1500.0" type="line"/>
      <point x="618.0" y="1066.0" type="line"/>
      <point x="593.0" y="1500.0" type="line"/>
      <point x="1006.0" y="1500.0" type="line"/>
      <point x="791.0" y="0.0" type="line"/>
      <point x="510.0" y="0.0" type="line"/>
      <point x="519.0" y="477.0" type="line"/>
      <point x="497.0" y="479.0" type="line"/>
      <point x="492.0" y="0.0" type="line"/>
    </contour>
  </outline>
</glyph>
<glyph name="X" format="2">
  <advance width="570.0"/>
  <outline>
    <contour>
      <point x="-70.0" y="0.0" type="line"/>
      <point x="105.0" y="893.0" type="line"/>
      <point x="151.0" y="893.0" type="line"/>
      <point x="212.0" y="1500.0" type="line"/>
      <point x="622.0" y="1500.0" type="line"/>
      <point x="497.0" y="689.0" type="line"/>
      <point x="451.0" y="689.0" type="line"/>
      <point x="340.0" y="0.0" type="line"/>
    </contour>
    <contour>
      <point x="181.0" y="0.0" type="line"/>
      <point x="135.0" y="572.0" type="line"/>
      <point x="116.0" y="642.0" type="line"/>
      <point x="-57.0" y="1500.0" type="line"/>
      <point x="415.0" y="1500.0" type="line"/>
      <point x="434.0" y="978.0" type="line"/>
      <point x="460.0" y="910.0" type="line"/>
      <point x="640.0" y="0.0" type="line"/>
    </contour>
  </outline>
</glyph>
<glyph name="Z" format="2">
  <advance width="538.0"/>
  <outline>
    <contour>
      <point x="534.0" y="0.0" type="line"/>
      <point x="14.0" y="0.0" type="line"/>
      <point x="9.0" y="345.0" type="line"/>
      <point x="54.0" y="1155.0" type="line"/>
      <point x="4.0" y="1155.0" type="line"/>
      <point x="4.0" y="1500.0" type="line"/>
      <point x="534.0" y="1500.0" type="line"/>
      <point x="534.0" y="1165.0" type="line"/>
      <point x="482.0" y="345.0" type="line"/>
      <point x="534.0" y="345.0" type="line"/>
    </contour>
  </outline>
</glyph>
<glyph name="a" format="2">
  <advance width="704.0"/>
  <outline>
    <contour>
      <point x="46.0" y="809.0" type="line"/>
      <point x="70.0" y="892.0"/>
      <point x="222.0" y="1020.0"/>
      <point x="367.0" y="1020.0" type="qcurve" smooth="yes"/>
      <point x="516.0" y="1020.0"/>
      <point x="678.0" y="882.0"/>
      <point x="680.0" y="764.0" type="qcurve" smooth="yes"/>
      <point x="680.0" y="0.0" type="line"/>
      <point x="275.0" y="0.0" type="line"/>
      <point x="275.0" y="706.0" type="line" smooth="yes"/>
      <point x="275.0" y="717.0"/>
      <point x="247.0" y="750.0"/>
      <point x="222.0" y="750.0" type="qcurve" smooth="yes"/>
      <point x="201.0" y="750.0"/>
      <point x="187.0" y="710.0"/>
      <point x="199.0" y="684.0" type="qcurve"/>
    </contour>
    <contour>
      <point x="306.0" y="142.0" type="line"/>
      <point x="292.0" y="75.0"/>
      <point x="235.0" y="-11.0"/>
      <point x="194.0" y="-11.0" type="qcurve" smooth="yes"/>
      <point x="112.0" y="-11.0"/>
      <point x="-21.0" y="144.0"/>
      <point x="-21.0" y="327.0" type="qcurve" smooth="yes"/>
      <point x="-21.0" y="516.0"/>
      <point x="115.0" y="673.0"/>
      <point x="204.0" y="673.0" type="qcurve" smooth="yes"/>
      <point x="236.0" y="673.0"/>
      <point x="290.0" y="661.0"/>
      <point x="305.0" y="645.0" type="qcurve"/>
      <point x="304.0" y="481.0" type="line"/>
      <point x="342.0" y="480.0"/>
      <point x="349.0" y="493.0"/>
      <point x="362.0" y="493.0" type="qcurve" smooth="yes"/>
      <point x="369.0" y="493.0"/>
      <point x="338.0" y="437.0"/>
      <point x="338.0" y="346.0" type="qcurve" smooth="yes"/>
      <point x="338.0" y="256.0"/>
      <point x="357.0" y="225.0"/>
      <point x="355.0" y="225.0" type="qcurve" smooth="yes"/>
      <point x="319.0" y="225.0"/>
      <point x="320.0" y="254.0"/>
      <point x="305.0" y="282.0" type="qcurve"/>
    </contour>
  </outline>
</glyph>
<glyph name="asciitilde" format="2">
  <advance width="754.0"/>
  <outline>
    <contour>
      <point x="408.0" y="907.0" type="qcurve" smooth="yes"/>
      <point x="369.0" y="952.0"/>
      <point x="295.0" y="1002.0"/>
      <point x="227.0" y="1002.0" type="qcurve" smooth="yes"/>
      <point x="154.0" y="1002.0"/>
      <point x="2.0" y="811.0"/>
      <point x="-23.0" y="656.0" type="qcurve"/>
      <point x="133.0" y="503.0" type="line"/>
      <point x="146.0" y="571.0"/>
      <point x="191.0" y="630.0"/>
      <point x="229.0" y="630.0" type="qcurve"/>
      <point x="268.0" y="630.0"/>
      <point x="311.0" y="596.0"/>
      <point x="336.0" y="568.0" type="qcurve" smooth="yes"/>
      <point x="373.0" y="527.0"/>
      <point x="453.0" y="466.0"/>
      <point x="529.0" y="466.0" type="qcurve" smooth="yes"/>
      <point x="619.0" y="466.0"/>
      <point x="771.0" y="644.0"/>
      <point x="792.0" y="784.0" type="qcurve"/>
      <point x="633.0" y="962.0" type="line"/>
      <point x="615.0" y="901.0"/>
      <point x="559.0" y="838.0"/>
      <point x="521.0" y="838.0" type="qcurve" smooth="yes"/>
      <point x="484.0" y="838.0"/>
      <point x="439.0" y="872.0"/>
    </contour>
  </outline>
</glyph>
<glyph name="asterisk" format="2">
  <advance width="767.0"/>
  <outline>
    <contour>
      <point x="415.0" y="859.0" type="line"/>
      <point x="330.0" y="684.0" type="line"/>
      <point x="17.0" y="891.0" type="line"/>
      <point x="123.0" y="1054.0" type="line"/>
      <point x="13.0" y="1092.0" type="line"/>
      <point x="161.0" y="1450.0" type="line"/>
      <point x="231.0" y="1365.0" type="line"/>
      <point x="231.0" y="1524.0" type="line"/>
      <point x="599.0" y="1524.0" type="line"/>
      <point x="596.0" y="1365.0" type="line"/>
      <point x="670.0" y="1448.0" type="line"/>
      <point x="818.0" y="1093.0" type="line"/>
      <point x="707.0" y="1054.0" type="line"/>
      <point x="815.0" y="901.0" type="line"/>
      <point x="499.0" y="684.0" type="line"/>
    </contour>
  </outline>
</glyph>
<glyph name="at" format="2">
  <advance width="1287.0"/>
  <outline>
    <contour>
      <point x="805.0" y="855.0" type="qcurve" smooth="yes"/>
      <point x="768.0" y="567.0" type="line" smooth="yes"/>
      <point x="753.0" y="450.0"/>
      <point x="635.0" y="311.0"/>
      <point x="533.0" y="313.0" type="qcurve" smooth="yes"/>
      <point x="529.0" y="313.0" type="line" smooth="yes"/>
      <point x="416.0" y="315.0"/>
      <point x="324.0" y="504.0"/>
      <point x="346.0" y="678.0" type="qcurve" smooth="yes"/>
      <point x="369.0" y="853.0" type="line" smooth="yes"/>
      <point x="387.0" y="993.0"/>
      <point x="527.0" y="1161.0"/>
      <point x="640.0" y="1158.0" type="qcurve" smooth="yes"/>
      <point x="644.0" y="1158.0" type="line" smooth="yes"/>
      <point x="746.0" y="1156.0"/>
      <point x="822.0" y="989.0"/>
    </contour>
    <contour>
      <point x="696.0" y="785.0" type="line" smooth="yes"/>
      <point x="708.0" y="884.0"/>
      <point x="714.0" y="949.0"/>
      <point x="706.0" y="951.0" type="qcurve" smooth="yes"/>
      <point x="704.0" y="951.0" type="line" smooth="yes"/>
      <point x="704.0" y="952.0"/>
      <point x="684.0" y="870.0"/>
      <point x="680.0" y="810.0" type="qcurve" smooth="yes"/>
      <point x="657.0" y="636.0" type="line" smooth="yes"/>
      <point x="650.0" y="571.0"/>
      <point x="636.0" y="493.0"/>
      <point x="653.0" y="493.0" type="qcurve" smooth="yes"/>
      <point x="655.0" y="493.0" type="line" smooth="yes"/>
      <point x="660.0" y="493.0"/>
      <point x="672.0" y="585.0"/>
      <point x="682.0" y="667.0" type="qcurve" smooth="yes"/>
    </contour>
    <contour>
      <point x="733.0" y="632.0" type="qcurve" smooth="yes"/>
      <point x="779.0" y="1133.0" type="line"/>
      <point x="1034.0" y="1131.0" type="line"/>
      <point x="966.0" y="601.0" type="line" smooth="yes"/>
      <point x="961.0" y="565.0"/>
      <point x="979.0" y="533.0"/>
      <point x="992.0" y="533.0" type="qcurve" smooth="yes"/>
      <point x="1021.0" y="533.0"/>
      <point x="1083.0" y="660.0"/>
      <point x="1083.0" y="802.0" type="qcurve" smooth="yes"/>
      <point x="1083.0" y="998.0"/>
      <point x="870.0" y="1302.0"/>
      <point x="682.0" y="1302.0" type="qcurve" smooth="yes"/>
      <point x="498.0" y="1302.0"/>
      <point x="269.0" y="973.0"/>
      <point x="269.0" y="702.0" type="qcurve" smooth="yes"/>
      <point x="269.0" y="412.0"/>
      <point x="494.0" y="97.0"/>
      <point x="671.0" y="97.0" type="qcurve" smooth="yes"/>
      <point x="792.0" y="97.0"/>
      <point x="998.0" y="218.0"/>
      <point x="1033.0" y="263.0" type="qcurve"/>
      <point x="1174.0" y="98.0" type="line"/>
      <point x="1091.0" y="1.0"/>
      <point x="831.0" y="-102.0"/>
      <point x="659.0" y="-102.0" type="qcurve" smooth="yes"/>
      <point x="385.0" y="-102.0"/>
      <point x="0.0" y="322.0"/>
      <point x="0.0" y="715.0" type="qcurve" smooth="yes"/>
      <point x="0.0" y="1077.0"/>
      <point x="411.0" y="1524.0"/>
      <point x="676.0" y="1524.0" type="qcurve" smooth="yes"/>
      <point x="941.0" y="1524.0"/>
      <point x="1332.0" y="1156.0"/>
      <point x="1332.0" y="836.0" type="qcurve" smooth="yes"/>
      <point x="1332.0" y="618.0"/>
      <point x="1099.0" y="319.0"/>
      <point x="922.0" y="319.0" type="qcurve" smooth="yes"/>
      <point x="793.0" y="319.0"/>
      <point x="711.0" y="474.0"/>
    </contour>
  </outline>
</glyph>
<glyph name="b" format="2">
  <advance width="760.0"/>
  <outline>
    <contour>
      <point x="36.0" y="0.0" type="line"/>
      <point x="36.0" y="1500.0" type="line"/>
      <point x="451.0" y="1500.0" type="line"/>
      <point x="451.0" y="0.0" type="line"/>
    </contour>
    <contour>
      <point x="444.0" y="936.0" type="line" smooth="yes"/>
      <point x="444.0" y="973.0"/>
      <point x="500.0" y="1020.0"/>
      <point x="558.0" y="1020.0" type="qcurve" smooth="yes"/>
      <point x="570.0" y="1020.0" type="line" smooth="yes"/>
      <point x="634.0" y="1020.0"/>
      <point x="725.0" y="848.0"/>
      <point x="725.0" y="715.0" type="qcurve" smooth="yes"/>
      <point x="725.0" y="335.0" type="line" smooth="yes"/>
      <point x="725.0" y="175.0"/>
      <point x="642.0" y="-15.0"/>
      <point x="568.0" y="-15.0" type="qcurve" smooth="yes"/>
      <point x="563.0" y="-15.0" type="line" smooth="yes"/>
      <point x="507.0" y="-15.0"/>
      <point x="444.0" y="-7.0"/>
      <point x="444.0" y="-1.0" type="qcurve" smooth="yes"/>
    </contour>
    <contour>
      <point x="460.0" y="755.0" type="qcurve" smooth="yes"/>
      <point x="460.0" y="224.0" type="line" smooth="yes"/>
      <point x="460.0" y="237.0"/>
      <point x="420.0" y="231.0"/>
      <point x="387.0" y="231.0" type="qcurve" smooth="yes"/>
      <point x="386.0" y="231.0" type="line" smooth="yes"/>
      <point x="351.0" y="231.0"/>
      <point x="320.0" y="227.0"/>
      <point x="320.0" y="224.0" type="qcurve" smooth="yes"/>
      <point x="320.0" y="771.0" type="line" smooth="yes"/>
      <point x="320.0" y="767.0"/>
      <point x="331.0" y="760.0"/>
      <point x="370.0" y="760.0" type="qcurve" smooth="yes"/>
      <point x="371.0" y="760.0" type="line" smooth="yes"/>
      <point x="408.0" y="760.0"/>
      <point x="460.0" y="758.0"/>
    </contour>
  </outline>
</glyph>
<glyph name="backslash" format="2">
  <advance width="424.0"/>
  <outline>
    <contour>
      <point x="492.0" y="0.0" type="line"/>
      <point x="72.0" y="0.0" type="line"/>
      <point x="-68.0" y="1500.0" type="line"/>
      <point x="352.0" y="1500.0" type="line"/>
    </contour>
  </outline>
</glyph>
<glyph name="bar" format="2">
  <advance width="384.0"/>
  <outline>
    <contour>
      <point x="2.0" y="-500.0" type="line"/>
      <point x="2.0" y="1500.0" type="line"/>
      <point x="382.0" y="1500.0" type="line"/>
      <point x="382.0" y="-500.0" type="line"/>
    </contour>
  </outline>
</glyph>
<glyph name="braceleft" format="2">
  <advance width="450.0"/>
  <outline>
    <contour>
      <point x="-30.0" y="448.0" type="line"/>
      <point x="51.0" y="450.0"/>
      <point x="79.0" y="391.0"/>
      <point x="79.0" y="360.0" type="qcurve" smooth="yes"/>
      <point x="79.0" y="334.0"/>
      <point x="47.0" y="275.0"/>
      <point x="26.0" y="239.0" type="qcurve" smooth="yes"/>
      <point x="3.0" y="202.0"/>
      <point x="-33.0" y="116.0"/>
      <point x="-33.0" y="17.0" type="qcurve" smooth="yes"/>
      <point x="-33.0" y="-88.0"/>
      <point x="115.0" y="-294.0"/>
      <point x="261.0" y="-400.0" type="qcurve"/>
      <point x="509.0" y="-170.0" type="line"/>
      <point x="436.0" y="-95.0"/>
      <point x="344.0" y="-14.0"/>
      <point x="344.0" y="49.0" type="qcurve" smooth="yes"/>
      <point x="344.0" y="109.0"/>
      <point x="380.0" y="193.0"/>
      <point x="403.0" y="235.0" type="qcurve" smooth="yes"/>
      <point x="430.0" y="284.0"/>
      <point x="473.0" y="376.0"/>
      <point x="473.0" y="429.0" type="qcurve" smooth="yes"/>
      <point x="473.0" y="486.0"/>
      <point x="346.0" y="585.0"/>
      <point x="247.0" y="611.0" type="qcurve"/>
      <point x="346.0" y="637.0"/>
      <point x="473.0" y="736.0"/>
      <point x="473.0" y="788.0" type="qcurve" smooth="yes"/>
      <point x="473.0" y="830.0"/>
      <point x="433.0" y="910.0"/>
      <point x="403.0" y="950.0" type="qcurve" smooth="yes"/>
      <point x="376.0" y="986.0"/>
      <point x="324.0" y="1067.0"/>
      <point x="324.0" y="1118.0" type="qcurve" smooth="yes"/>
      <point x="324.0" y="1182.0"/>
      <point x="436.0" y="1295.0"/>
      <point x="514.0" y="1321.0" type="qcurve"/>
      <point x="289.0" y="1526.0" type="line"/>
      <point x="192.0" y="1501.0"/>
      <point x="-36.0" y="1312.0"/>
      <point x="-36.0" y="1229.0" type="qcurve" smooth="yes"/>
      <point x="-36.0" y="1149.0"/>
      <point x="0.0" y="1049.0"/>
      <point x="23.0" y="1005.0" type="qcurve" smooth="yes"/>
      <point x="45.0" y="963.0"/>
      <point x="77.0" y="894.0"/>
      <point x="77.0" y="864.0" type="qcurve" smooth="yes"/>
      <point x="77.0" y="827.0"/>
      <point x="48.0" y="757.0"/>
      <point x="-33.0" y="755.0" type="qcurve"/>
    </contour>
  </outline>
</glyph>
<glyph name="braceright" format="2">
  <advance width="450.0"/>
  <outline>
    <contour>
      <point x="479.0" y="448.0" type="qcurve"/>
      <point x="482.0" y="755.0" type="line"/>
      <point x="401.0" y="757.0"/>
      <point x="372.0" y="827.0"/>
      <point x="372.0" y="864.0" type="qcurve" smooth="yes"/>
      <point x="372.0" y="894.0"/>
      <point x="404.0" y="963.0"/>
      <point x="426.0" y="1005.0" type="qcurve" smooth="yes"/>
      <point x="449.0" y="1049.0"/>
      <point x="485.0" y="1149.0"/>
      <point x="485.0" y="1229.0" type="qcurve" smooth="yes"/>
      <point x="485.0" y="1312.0"/>
      <point x="257.0" y="1501.0"/>
      <point x="160.0" y="1526.0" type="qcurve"/>
      <point x="-65.0" y="1311.0" type="line"/>
      <point x="13.0" y="1285.0"/>
      <point x="125.0" y="1172.0"/>
      <point x="125.0" y="1108.0" type="qcurve" smooth="yes"/>
      <point x="125.0" y="1057.0"/>
      <point x="73.0" y="976.0"/>
      <point x="46.0" y="940.0" type="qcurve" smooth="yes"/>
      <point x="16.0" y="900.0"/>
      <point x="-24.0" y="820.0"/>
      <point x="-24.0" y="778.0" type="qcurve" smooth="yes"/>
      <point x="-24.0" y="726.0"/>
      <point x="103.0" y="627.0"/>
      <point x="202.0" y="601.0" type="qcurve"/>
      <point x="103.0" y="575.0"/>
      <point x="-24.0" y="476.0"/>
      <point x="-24.0" y="419.0" type="qcurve" smooth="yes"/>
      <point x="-24.0" y="366.0"/>
      <point x="19.0" y="274.0"/>
      <point x="46.0" y="225.0" type="qcurve" smooth="yes"/>
      <point x="69.0" y="183.0"/>
      <point x="105.0" y="99.0"/>
      <point x="105.0" y="39.0" type="qcurve" smooth="yes"/>
      <point x="105.0" y="-24.0"/>
      <point x="13.0" y="-105.0"/>
      <point x="-60.0" y="-180.0" type="qcurve"/>
      <point x="188.0" y="-400.0" type="line"/>
      <point x="334.0" y="-294.0"/>
      <point x="482.0" y="-88.0"/>
      <point x="482.0" y="17.0" type="qcurve" smooth="yes"/>
      <point x="482.0" y="116.0"/>
      <point x="446.0" y="202.0"/>
      <point x="423.0" y="239.0" type="qcurve" smooth="yes"/>
      <point x="402.0" y="275.0"/>
      <point x="370.0" y="334.0"/>
      <point x="370.0" y="360.0" type="qcurve" smooth="yes"/>
      <point x="370.0" y="391.0"/>
      <point x="398.0" y="450.0"/>
    </contour>
  </outline>
</glyph>
<glyph name="bracketleft" format="2">
  <advance width="450.0"/>
  <outline>
    <contour>
      <point x="8.0" y="-280.0" type="line"/>
      <point x="8.0" y="1500.0" type="line"/>
      <point x="419.0" y="1500.0" type="line"/>
      <point x="419.0" y="-280.0" type="line"/>
    </contour>
    <contour>
      <point x="526.0" y="-280.0" type="line"/>
      <point x="239.0" y="-280.0" type="line"/>
      <point x="239.0" y="25.0" type="line"/>
      <point x="526.0" y="25.0" type="line"/>
    </contour>
    <contour>
      <point x="526.0" y="1195.0" type="line"/>
      <point x="234.0" y="1195.0" type="line"/>
      <point x="234.0" y="1500.0" type="line"/>
      <point x="526.0" y="1500.0" type="line"/>
    </contour>
  </outline>
</glyph>
<glyph name="bracketright" format="2">
  <advance width="450.0"/>
  <outline>
    <contour>
      <point x="442.0" y="-280.0" type="line"/>
      <point x="31.0" y="-280.0" type="line"/>
      <point x="31.0" y="1500.0" type="line"/>
      <point x="442.0" y="1500.0" type="line"/>
    </contour>
    <contour>
      <point x="-76.0" y="-280.0" type="line"/>
      <point x="-76.0" y="25.0" type="line"/>
      <point x="211.0" y="25.0" type="line"/>
      <point x="211.0" y="-280.0" type="line"/>
    </contour>
    <contour>
      <point x="-76.0" y="1195.0" type="line"/>
      <point x="-76.0" y="1500.0" type="line"/>
      <point x="216.0" y="1500.0" type="line"/>
      <point x="216.0" y="1195.0" type="line"/>
    </contour>
  </outline>
</glyph>
<glyph name="c" format="2">
  <advance width="634.0"/>
  <outline>
    <contour>
      <point x="638.0" y="402.0" type="line"/>
      <point x="637.0" y="299.0" type="line" smooth="yes"/>
      <point x="646.0" y="146.0"/>
      <point x="488.0" y="-15.0"/>
      <point x="341.0" y="-15.0" type="qcurve" smooth="yes"/>
      <point x="331.0" y="-15.0" type="line" smooth="yes"/>
      <point x="194.0" y="-15.0"/>
      <point x="12.0" y="149.0"/>
      <point x="12.0" y="334.0" type="qcurve" smooth="yes"/>
      <point x="12.0" y="710.0" type="line" smooth="yes"/>
      <point x="12.0" y="844.0"/>
      <point x="188.0" y="1020.0"/>
      <point x="321.0" y="1020.0" type="qcurve" smooth="yes"/>
      <point x="342.0" y="1020.0" type="line" smooth="yes"/>
      <point x="474.0" y="1020.0"/>
      <point x="634.0" y="868.0"/>
      <point x="636.0" y="726.0" type="qcurve" smooth="yes"/>
      <point x="638.0" y="570.0" type="line"/>
      <point x="266.0" y="571.0" type="line"/>
      <point x="266.0" y="713.0" type="line" smooth="yes"/>
      <point x="274.0" y="742.0"/>
      <point x="302.0" y="753.0"/>
      <point x="346.0" y="753.0" type="qcurve" smooth="yes"/>
      <point x="350.0" y="753.0" type="line" smooth="yes"/>
      <point x="393.0" y="753.0"/>
      <point x="446.0" y="773.0"/>
      <point x="446.0" y="772.0" type="qcurve" smooth="yes"/>
      <point x="446.0" y="245.0" type="line" smooth="yes"/>
      <point x="446.0" y="240.0"/>
      <point x="389.0" y="238.0"/>
      <point x="352.0" y="238.0" type="qcurve" smooth="yes"/>
      <point x="347.0" y="238.0" type="line" smooth="yes"/>
      <point x="307.0" y="238.0"/>
      <point x="274.0" y="250.0"/>
      <point x="263.0" y="288.0" type="qcurve" smooth="yes"/>
      <point x="261.0" y="404.0" type="line"/>
    </contour>
  </outline>
</glyph>
<glyph name="colon" format="2">
  <advance width="450.0"/>
  <outline>
    <contour>
      <point x="223.0" y="-26.0" type="line" smooth="yes"/>
      <point x="324.0" y="-26.0"/>
      <point x="440.0" y="86.0"/>
      <point x="440.0" y="178.0" type="qcurve" smooth="yes"/>
      <point x="440.0" y="190.0" type="line" smooth="yes"/>
      <point x="440.0" y="282.0"/>
      <point x="326.0" y="396.0"/>
      <point x="223.0" y="396.0" type="qcurve" smooth="yes"/>
      <point x="219.0" y="396.0" type="line" smooth="yes"/>
      <point x="124.0" y="396.0"/>
      <point x="13.0" y="282.0"/>
      <point x="13.0" y="190.0" type="qcurve" smooth="yes"/>
      <point x="13.0" y="178.0" type="line" smooth="yes"/>
      <point x="13.0" y="84.0"/>
      <point x="122.0" y="-26.0"/>
      <point x="219.0" y="-26.0" type="qcurve" smooth="yes"/>
    </contour>
    <contour>
      <point x="221.0" y="590.0" type="line" smooth="yes"/>
      <point x="322.0" y="590.0"/>
      <point x="439.0" y="702.0"/>
      <point x="439.0" y="794.0" type="qcurve" smooth="yes"/>
      <point x="439.0" y="806.0" type="line" smooth="yes"/>
      <point x="439.0" y="898.0"/>
      <point x="324.0" y="1012.0"/>
      <point x="221.0" y="1012.0" type="qcurve" smooth="yes"/>
      <point x="217.0" y="1012.0" type="line" smooth="yes"/>
      <point x="122.0" y="1012.0"/>
      <point x="11.0" y="898.0"/>
      <point x="11.0" y="806.0" type="qcurve" smooth="yes"/>
      <point x="11.0" y="794.0" type="line" smooth="yes"/>
      <point x="11.0" y="700.0"/>
      <point x="120.0" y="590.0"/>
      <point x="217.0" y="590.0" type="qcurve" smooth="yes"/>
    </contour>
  </outline>
</glyph>
<glyph name="eight" format="2">
  <advance width="767.0"/>
  <outline>
    <contour>
      <point x="378.0" y="-17.0" type="line" smooth="yes"/>
      <point x="211.0" y="-17.0"/>
      <point x="0.0" y="198.0"/>
      <point x="0.0" y="393.0" type="qcurve" smooth="yes"/>
      <point x="0.0" y="474.0" type="line" smooth="yes"/>
      <point x="0.0" y="661.0"/>
      <point x="229.0" y="883.0"/>
      <point x="375.0" y="883.0" type="qcurve" smooth="yes"/>
      <point x="380.0" y="883.0" type="line" smooth="yes"/>
      <point x="531.0" y="883.0"/>
      <point x="767.0" y="661.0"/>
      <point x="767.0" y="474.0" type="qcurve" smooth="yes"/>
      <point x="767.0" y="393.0" type="line" smooth="yes"/>
      <point x="767.0" y="198.0"/>
      <point x="553.0" y="-17.0"/>
      <point x="383.0" y="-17.0" type="qcurve" smooth="yes"/>
    </contour>
    <contour>
      <point x="374.0" y="279.0" type="line" smooth="yes"/>
      <point x="371.0" y="279.0"/>
      <point x="371.0" y="340.0"/>
      <point x="371.0" y="424.0" type="qcurve" smooth="yes"/>
      <point x="371.0" y="506.0" type="line" smooth="yes"/>
      <point x="371.0" y="590.0"/>
      <point x="371.0" y="655.0"/>
      <point x="374.0" y="655.0" type="qcurve" smooth="yes"/>
      <point x="375.0" y="655.0" type="line" smooth="yes"/>
      <point x="377.0" y="655.0"/>
      <point x="381.0" y="590.0"/>
      <point x="381.0" y="506.0" type="qcurve" smooth="yes"/>
      <point x="381.0" y="424.0" type="line" smooth="yes"/>
      <point x="381.0" y="340.0"/>
      <point x="378.0" y="279.0"/>
      <point x="375.0" y="279.0" type="qcurve" smooth="yes"/>
    </contour>
    <contour>
      <point x="379.0" y="704.0" type="line" smooth="yes"/>
      <point x="247.0" y="704.0"/>
      <point x="54.0" y="885.0"/>
      <point x="54.0" y="1037.0" type="qcurve" smooth="yes"/>
      <point x="54.0" y="1172.0" type="line" smooth="yes"/>
      <point x="54.0" y="1346.0"/>
      <point x="244.0" y="1513.0"/>
      <point x="375.0" y="1513.0" type="qcurve" smooth="yes"/>
      <point x="381.0" y="1513.0" type="line" smooth="yes"/>
      <point x="516.0" y="1513.0"/>
      <point x="713.0" y="1346.0"/>
      <point x="713.0" y="1172.0" type="qcurve" smooth="yes"/>
      <point x="713.0" y="1037.0" type="line" smooth="yes"/>
      <point x="713.0" y="884.0"/>
      <point x="520.0" y="704.0"/>
      <point x="384.0" y="704.0" type="qcurve" smooth="yes"/>
    </contour>
    <contour>
      <point x="383.0" y="909.0" type="line" smooth="yes"/>
      <point x="382.0" y="909.0"/>
      <point x="361.0" y="956.0"/>
      <point x="361.0" y="996.0" type="qcurve" smooth="yes"/>
      <point x="361.0" y="1112.0" type="line" smooth="yes"/>
      <point x="361.0" y="1165.0"/>
      <point x="372.0" y="1209.0"/>
      <point x="383.0" y="1209.0" type="qcurve" smooth="yes"/>
      <point x="382.0" y="1209.0" type="line" smooth="yes"/>
      <point x="392.0" y="1209.0"/>
      <point x="405.0" y="1165.0"/>
      <point x="405.0" y="1112.0" type="qcurve" smooth="yes"/>
      <point x="405.0" y="996.0" type="line" smooth="yes"/>
      <point x="405.0" y="956.0"/>
      <point x="383.0" y="909.0"/>
      <point x="382.0" y="909.0" type="qcurve" smooth="yes"/>
    </contour>
  </outline>
</glyph>
<glyph name="f" format="2">
  <advance width="407.0"/>
  <outline>
    <contour>
      <point x="419.0" y="692.0" type="line"/>
      <point x="14.0" y="692.0" type="line"/>
      <point x="14.0" y="1000.0" type="line"/>
      <point x="419.0" y="1000.0" type="line"/>
    </contour>
    <contour>
      <point x="397.0" y="1255.0" type="qcurve" smooth="yes"/>
      <point x="397.0" y="0.0" type="line"/>
      <point x="-25.0" y="0.0" type="line"/>
      <point x="-25.0" y="1268.0" type="line" smooth="yes"/>
      <point x="-25.0" y="1392.0"/>
      <point x="122.0" y="1553.0"/>
      <point x="255.0" y="1553.0" type="qcurve" smooth="yes"/>
      <point x="329.0" y="1553.0"/>
      <point x="409.0" y="1531.0"/>
      <point x="441.0" y="1512.0" type="qcurve"/>
      <point x="396.0" y="1278.0" type="line"/>
      <point x="386.0" y="1277.0"/>
      <point x="399.0" y="1271.0"/>
      <point x="387.0" y="1271.0" type="qcurve" smooth="yes"/>
      <point x="376.0" y="1271.0"/>
      <point x="397.0" y="1270.0"/>
    </contour>
  </outline>
</glyph>
<glyph name="five" format="2">
  <advance width="744.0"/>
  <outline>
    <contour>
      <point x="462.0" y="1019.0" type="line" smooth="yes"/>
      <point x="626.0" y="1019.0"/>
      <point x="711.0" y="832.0"/>
      <point x="711.0" y="674.0" type="qcurve" smooth="yes"/>
      <point x="711.0" y="375.0" type="line" smooth="yes"/>
      <point x="711.0" y="189.0"/>
      <point x="527.0" y="-15.0"/>
      <point x="396.0" y="-15.0" type="qcurve" smooth="yes"/>
      <point x="371.0" y="-15.0" type="line" smooth="yes"/>
      <point x="238.0" y="-15.0"/>
      <point x="54.0" y="178.0"/>
      <point x="57.0" y="317.0" type="qcurve" smooth="yes"/>
      <point x="57.0" y="478.0" type="line"/>
      <point x="468.0" y="480.0" type="line"/>
      <point x="467.0" y="314.0" type="line" smooth="yes"/>
      <point x="463.0" y="280.0"/>
      <point x="424.0" y="275.0"/>
      <point x="382.0" y="275.0" type="qcurve" smooth="yes"/>
      <point x="386.0" y="275.0" type="line" smooth="yes"/>
      <point x="327.0" y="275.0"/>
      <point x="301.0" y="260.0"/>
      <point x="301.0" y="268.0" type="qcurve" smooth="yes"/>
      <point x="301.0" y="761.0" type="line" smooth="yes"/>
      <point x="301.0" y="770.0"/>
      <point x="347.0" y="729.0"/>
      <point x="396.0" y="729.0" type="qcurve" smooth="yes"/>
      <point x="397.0" y="729.0" type="line" smooth="yes"/>
      <point x="407.0" y="729.0"/>
      <point x="402.0" y="660.0"/>
      <point x="423.0" y="640.0" type="qcurve"/>
      <point x="42.0" y="642.0" type="line"/>
      <point x="47.0" y="1500.0" type="line"/>
      <point x="652.0" y="1500.0" type="line"/>
      <point x="652.0" y="1175.0" type="line"/>
      <point x="335.0" y="1175.0" type="line"/>
      <point x="322.0" y="942.0" type="line"/>
      <point x="342.0" y="976.0"/>
      <point x="411.0" y="1019.0"/>
      <point x="446.0" y="1019.0" type="qcurve" smooth="yes"/>
    </contour>
  </outline>
</glyph>
<glyph name="g" format="2">
  <advance width="743.0"/>
  <outline>
    <contour>
      <point x="303.0" y="1006.0" type="qcurve" smooth="yes"/>
      <point x="303.0" y="-26.0" type="line" smooth="yes"/>
      <point x="303.0" y="-27.0"/>
      <point x="258.0" y="-20.0"/>
      <point x="218.0" y="-20.0" type="qcurve" smooth="yes"/>
      <point x="169.0" y="-20.0" type="line" smooth="yes"/>
      <point x="105.0" y="-20.0"/>
      <point x="22.0" y="136.0"/>
      <point x="22.0" y="360.0" type="qcurve" smooth="yes"/>
      <point x="22.0" y="710.0" type="line" smooth="yes"/>
      <point x="22.0" y="870.0"/>
      <point x="114.0" y="1020.0"/>
      <point x="178.0" y="1020.0" type="qcurve" smooth="yes"/>
      <point x="222.0" y="1020.0" type="line" smooth="yes"/>
      <point x="262.0" y="1020.0"/>
      <point x="303.0" y="1017.0"/>
    </contour>
    <contour>
      <point x="290.0" y="743.0" type="line" smooth="yes"/>
      <point x="290.0" y="752.0"/>
      <point x="332.0" y="759.0"/>
      <point x="367.0" y="759.0" type="qcurve" smooth="yes"/>
      <point x="368.0" y="759.0" type="line" smooth="yes"/>
      <point x="404.0" y="759.0"/>
      <point x="437.0" y="765.0"/>
      <point x="437.0" y="770.0" type="qcurve" smooth="yes"/>
      <point x="437.0" y="239.0" type="line" smooth="yes"/>
      <point x="437.0" y="221.0"/>
      <point x="403.0" y="224.0"/>
      <point x="368.0" y="224.0" type="qcurve" smooth="yes"/>
      <point x="367.0" y="224.0" type="line" smooth="yes"/>
      <point x="333.0" y="224.0"/>
      <point x="290.0" y="247.0"/>
      <point x="290.0" y="268.0" type="qcurve" smooth="yes"/>
    </contour>
    <contour>
      <point x="-47.0" y="-191.0" type="line"/>
      <point x="-28.0" y="-198.0"/>
      <point x="21.0" y="-211.0"/>
      <point x="132.0" y="-211.0" type="qcurve" smooth="yes"/>
      <point x="247.0" y="-211.0"/>
      <point x="302.0" y="-83.0"/>
      <point x="302.0" y="47.0" type="qcurve" smooth="yes"/>
      <point x="302.0" y="1000.0" type="line"/>
      <point x="713.0" y="1000.0" type="line"/>
      <point x="713.0" y="110.0" type="line" smooth="yes"/>
      <point x="713.0" y="-207.0"/>
      <point x="401.0" y="-500.0"/>
      <point x="209.0" y="-500.0" type="qcurve" smooth="yes"/>
      <point x="71.0" y="-500.0"/>
      <point x="-44.0" y="-487.0"/>
      <point x="-75.0" y="-480.0" type="qcurve"/>
    </contour>
  </outline>
</glyph>
<glyph name="hyphen" format="2">
  <advance width="700.0"/>
  <outline>
    <contour>
      <point x="679.0" y="523.0" type="line"/>
      <point x="19.0" y="523.0" type="line"/>
      <point x="19.0" y="905.0" type="line"/>
      <point x="679.0" y="905.0" type="line"/>
    </contour>
  </outline>
</glyph>
<glyph name="i" format="2">
  <advance width="374.0"/>
  <outline>
    <contour>
      <point x="-61.0" y="0.0" type="line"/>
      <point x="-61.0" y="1000.0" type="line"/>
      <point x="351.0" y="1000.0" type="line"/>
      <point x="351.0" y="0.0" type="line"/>
    </contour>
    <contour>
      <point x="145.0" y="1011.0" type="line" smooth="yes"/>
      <point x="251.0" y="1011.0"/>
      <point x="368.0" y="1130.0"/>
      <point x="368.0" y="1227.0" type="qcurve" smooth="yes"/>
      <point x="368.0" y="1239.0" type="line" smooth="yes"/>
      <point x="368.0" y="1336.0"/>
      <point x="252.0" y="1457.0"/>
      <point x="145.0" y="1457.0" type="qcurve" smooth="yes"/>
      <point x="140.0" y="1457.0" type="line" smooth="yes"/>
      <point x="41.0" y="1457.0"/>
      <point x="-77.0" y="1336.0"/>
      <point x="-77.0" y="1239.0" type="qcurve" smooth="yes"/>
      <point x="-77.0" y="1227.0" type="line" smooth="yes"/>
      <point x="-77.0" y="1128.0"/>
      <point x="38.0" y="1011.0"/>
      <point x="140.0" y="1011.0" type="qcurve" smooth="yes"/>
    </contour>
    <contour>
      <point x="316.0" y="705.0" type="line"/>
      <point x="196.0" y="685.0" type="line"/>
      <point x="196.0" y="980.0" type="line"/>
      <point x="316.0" y="1000.0" type="line"/>
    </contour>
  </outline>
</glyph>
<glyph name="j" format="2">
  <advance width="375.0"/>
  <outline>
    <contour>
      <point x="355.0" y="-97.0" type="line" smooth="yes"/>
      <point x="355.0" y="-358.0"/>
      <point x="106.0" y="-500.0"/>
      <point x="-37.0" y="-500.0" type="qcurve" smooth="yes"/>
      <point x="-87.0" y="-500.0"/>
      <point x="-149.0" y="-491.0"/>
      <point x="-170.0" y="-484.0" type="qcurve"/>
      <point x="-150.0" y="-146.0" type="line"/>
      <point x="-145.0" y="-150.0"/>
      <point x="-128.0" y="-161.0"/>
      <point x="-105.0" y="-161.0" type="qcurve" smooth="yes"/>
      <point x="-79.0" y="-161.0"/>
      <point x="-53.0" y="-95.0"/>
      <point x="-53.0" y="-9.0" type="qcurve" smooth="yes"/>
      <point x="-53.0" y="1000.0" type="line"/>
      <point x="355.0" y="1000.0" type="line"/>
    </contour>
    <contour>
      <point x="158.0" y="1011.0" type="line" smooth="yes"/>
      <point x="264.0" y="1011.0"/>
      <point x="381.0" y="1130.0"/>
      <point x="381.0" y="1227.0" type="qcurve" smooth="yes"/>
      <point x="381.0" y="1239.0" type="line" smooth="yes"/>
      <point x="381.0" y="1336.0"/>
      <point x="265.0" y="1457.0"/>
      <point x="158.0" y="1457.0" type="qcurve" smooth="yes"/>
      <point x="153.0" y="1457.0" type="line" smooth="yes"/>
      <point x="54.0" y="1457.0"/>
      <point x="-64.0" y="1336.0"/>
      <point x="-64.0" y="1239.0" type="qcurve" smooth="yes"/>
      <point x="-64.0" y="1227.0" type="line" smooth="yes"/>
      <point x="-64.0" y="1128.0"/>
      <point x="51.0" y="1011.0"/>
      <point x="153.0" y="1011.0" type="qcurve" smooth="yes"/>
    </contour>
    <contour>
      <point x="326.0" y="705.0" type="line"/>
      <point x="206.0" y="685.0" type="line"/>
      <point x="206.0" y="980.0" type="line"/>
      <point x="326.0" y="1000.0" type="line"/>
    </contour>
  </outline>
</glyph>
<glyph name="k" format="2">
  <advance width="883.0"/>
  <outline>
    <contour>
      <point x="36.0" y="0.0" type="line"/>
      <point x="36.0" y="1500.0" type="line"/>
      <point x="448.0" y="1500.0" type="line"/>
      <point x="448.0" y="0.0" type="line"/>
    </contour>
    <contour>
      <point x="582.0" y="518.0" type="line"/>
      <point x="448.0" y="368.0" type="line"/>
      <point x="448.0" y="729.0" type="line"/>
      <point x="420.0" y="809.0" type="line"/>
      <point x="445.0" y="997.0" type="line"/>
      <point x="873.0" y="997.0" type="line"/>
      <point x="665.0" y="561.0" type="line"/>
    </contour>
    <contour>
      <point x="621.0" y="753.0" type="line"/>
      <point x="915.0" y="0.0" type="line"/>
      <point x="473.0" y="0.0" type="line"/>
      <point x="304.0" y="536.0" type="line"/>
    </contour>
  </outline>
</glyph>
<glyph name="m" format="2">
  <advance width="1060.0"/>
  <outline>
    <contour>
      <point x="36.0" y="0.0" type="line"/>
      <point x="36.0" y="1000.0" type="line"/>
      <point x="450.0" y="1000.0" type="line"/>
      <point x="450.0" y="0.0" type="line"/>
    </contour>
    <contour>
      <point x="356.0" y="638.0" type="line"/>
      <point x="328.0" y="762.0"/>
      <point x="415.0" y="1020.0"/>
      <point x="557.0" y="1020.0" type="qcurve" smooth="yes"/>
      <point x="666.0" y="1020.0"/>
      <point x="747.0" y="874.0"/>
      <point x="746.0" y="766.0" type="qcurve" smooth="yes"/>
      <point x="746.0" y="0.0" type="line"/>
      <point x="333.0" y="0.0" type="line"/>
      <point x="333.0" y="735.0" type="line" smooth="yes"/>
      <point x="333.0" y="715.0"/>
      <point x="356.0" y="700.0"/>
      <point x="389.0" y="700.0" type="qcurve" smooth="yes"/>
      <point x="385.0" y="700.0"/>
      <point x="392.0" y="665.0"/>
      <point x="378.0" y="602.0" type="qcurve"/>
    </contour>
    <contour>
      <point x="635.0" y="722.0" type="line"/>
      <point x="607.0" y="819.0"/>
      <point x="728.0" y="1020.0"/>
      <point x="843.0" y="1020.0" type="qcurve" smooth="yes"/>
      <point x="956.0" y="1020.0"/>
      <point x="1038.0" y="874.0"/>
      <point x="1037.0" y="766.0" type="qcurve" smooth="yes"/>
      <point x="1037.0" y="0.0" type="line"/>
      <point x="623.0" y="0.0" type="line"/>
      <point x="623.0" y="735.0" type="line" smooth="yes"/>
      <point x="623.0" y="715.0"/>
      <point x="646.0" y="700.0"/>
      <point x="679.0" y="700.0" type="qcurve" smooth="yes"/>
      <point x="675.0" y="700.0"/>
      <point x="682.0" y="665.0"/>
      <point x="668.0" y="602.0" type="qcurve"/>
    </contour>
  </outline>
</glyph>
<glyph name="o" format="2">
  <advance width="697.0"/>
  <outline>
    <contour>
      <point x="344.0" y="-15.0" type="line" smooth="yes"/>
      <point x="202.0" y="-15.0"/>
      <point x="12.0" y="159.0"/>
      <point x="12.0" y="334.0" type="qcurve" smooth="yes"/>
      <point x="12.0" y="708.0" type="line" smooth="yes"/>
      <point x="12.0" y="843.0"/>
      <point x="210.0" y="1020.0"/>
      <point x="342.0" y="1020.0" type="qcurve" smooth="yes"/>
      <point x="346.0" y="1020.0" type="line" smooth="yes"/>
      <point x="480.0" y="1020.0"/>
      <point x="686.0" y="843.0"/>
      <point x="686.0" y="708.0" type="qcurve" smooth="yes"/>
      <point x="686.0" y="334.0" type="line" smooth="yes"/>
      <point x="686.0" y="159.0"/>
      <point x="492.0" y="-15.0"/>
      <point x="348.0" y="-15.0" type="qcurve" smooth="yes"/>
    </contour>
    <contour>
      <point x="353.0" y="236.0" type="line" smooth="yes"/>
      <point x="321.0" y="236.0"/>
      <point x="269.0" y="231.0"/>
      <point x="269.0" y="243.0" type="qcurve" smooth="yes"/>
      <point x="269.0" y="769.0" type="line" smooth="yes"/>
      <point x="269.0" y="775.0"/>
      <point x="319.0" y="763.0"/>
      <point x="353.0" y="763.0" type="qcurve" smooth="yes"/>
      <point x="354.0" y="763.0" type="line" smooth="yes"/>
      <point x="386.0" y="763.0"/>
      <point x="436.0" y="775.0"/>
      <point x="436.0" y="769.0" type="qcurve" smooth="yes"/>
      <point x="436.0" y="243.0" type="line" smooth="yes"/>
      <point x="436.0" y="231.0"/>
      <point x="386.0" y="236.0"/>
      <point x="354.0" y="236.0" type="qcurve" smooth="yes"/>
    </contour>
  </outline>
</glyph>
<glyph name="one" format="2">
  <advance width="464.0"/>
  <outline>
    <contour>
      <point x="14.0" y="0.0" type="line"/>
      <point x="14.0" y="1500.0" type="line"/>
      <point x="450.0" y="1500.0" type="line"/>
      <point x="450.0" y="0.0" type="line"/>
    </contour>
  </outline>
</glyph>
<glyph name="parenleft" format="2">
  <advance width="450.0"/>
  <outline>
    <contour>
      <point x="197.0" y="-337.0" type="line"/>
      <point x="-29.0" y="103.0"/>
      <point x="-29.0" y="1127.0"/>
      <point x="192.0" y="1581.0" type="qcurve"/>
      <point x="497.0" y="1384.0" type="line"/>
      <point x="431.0" y="1016.0"/>
      <point x="431.0" y="187.0"/>
      <point x="500.0" y="-161.0" type="qcurve"/>
    </contour>
  </outline>
</glyph>
<glyph name="percent" format="2">
  <advance width="1471.0"/>
  <outline>
    <contour>
      <point x="335.0" y="594.0" type="line" smooth="yes"/>
      <point x="189.0" y="594.0"/>
      <point x="-23.0" y="807.0"/>
      <point x="-23.0" y="977.0" type="qcurve" smooth="yes"/>
      <point x="-23.0" y="1183.0" type="line" smooth="yes"/>
      <point x="-23.0" y="1331.0"/>
      <point x="186.0" y="1526.0"/>
      <point x="333.0" y="1526.0" type="qcurve" smooth="yes"/>
      <point x="337.0" y="1526.0" type="line" smooth="yes"/>
      <point x="486.0" y="1526.0"/>
      <point x="704.0" y="1331.0"/>
      <point x="704.0" y="1183.0" type="qcurve" smooth="yes"/>
      <point x="704.0" y="977.0" type="line" smooth="yes"/>
      <point x="704.0" y="807.0"/>
      <point x="490.0" y="594.0"/>
      <point x="340.0" y="594.0" type="qcurve" smooth="yes"/>
    </contour>
    <contour>
      <point x="341.0" y="920.0" type="line" smooth="yes"/>
      <point x="330.0" y="920.0"/>
      <point x="319.0" y="945.0"/>
      <point x="319.0" y="964.0" type="qcurve" smooth="yes"/>
      <point x="319.0" y="1179.0" type="line" smooth="yes"/>
      <point x="319.0" y="1181.0"/>
      <point x="331.0" y="1184.0"/>
      <point x="341.0" y="1184.0" type="qcurve" smooth="yes"/>
      <point x="341.0" y="1184.0" type="line" smooth="yes"/>
      <point x="350.0" y="1184.0"/>
      <point x="362.0" y="1181.0"/>
      <point x="362.0" y="1179.0" type="qcurve" smooth="yes"/>
      <point x="362.0" y="964.0" type="line" smooth="yes"/>
      <point x="362.0" y="945.0"/>
      <point x="351.0" y="920.0"/>
      <point x="341.0" y="920.0" type="qcurve" smooth="yes"/>
    </contour>
    <contour>
      <point x="1125.0" y="-27.0" type="line" smooth="yes"/>
      <point x="979.0" y="-27.0"/>
      <point x="767.0" y="186.0"/>
      <point x="767.0" y="356.0" type="qcurve" smooth="yes"/>
      <point x="767.0" y="562.0" type="line" smooth="yes"/>
      <point x="767.0" y="710.0"/>
      <point x="976.0" y="905.0"/>
      <point x="1123.0" y="905.0" type="qcurve" smooth="yes"/>
      <point x="1127.0" y="905.0" type="line" smooth="yes"/>
      <point x="1276.0" y="905.0"/>
      <point x="1494.0" y="710.0"/>
      <point x="1494.0" y="562.0" type="qcurve" smooth="yes"/>
      <point x="1494.0" y="356.0" type="line" smooth="yes"/>
      <point x="1494.0" y="186.0"/>
      <point x="1280.0" y="-27.0"/>
      <point x="1130.0" y="-27.0" type="qcurve" smooth="yes"/>
    </contour>
    <contour>
      <point x="1131.0" y="285.0" type="line" smooth="yes"/>
      <point x="1120.0" y="285.0"/>
      <point x="1109.0" y="310.0"/>
      <point x="1109.0" y="329.0" type="qcurve" smooth="yes"/>
      <point x="1109.0" y="544.0" type="line" smooth="yes"/>
      <point x="1109.0" y="546.0"/>
      <point x="1121.0" y="549.0"/>
      <point x="1131.0" y="549.0" type="qcurve" smooth="yes"/>
      <point x="1131.0" y="549.0" type="line" smooth="yes"/>
      <point x="1140.0" y="549.0"/>
      <point x="1152.0" y="546.0"/>
      <point x="1152.0" y="544.0" type="qcurve" smooth="yes"/>
      <point x="1152.0" y="329.0" type="line" smooth="yes"/>
      <point x="1152.0" y="310.0"/>
      <point x="1141.0" y="285.0"/>
      <point x="1131.0" y="285.0" type="qcurve" smooth="yes"/>
    </contour>
    <contour>
      <point x="202.0" y="0.0" type="line"/>
      <point x="972.0" y="1500.0" type="line"/>
      <point x="1252.0" y="1500.0" type="line"/>
      <point x="492.0" y="0.0" type="line"/>
    </contour>
  </outline>
</glyph>
<glyph name="period" format="2">
  <advance width="430.0"/>
  <outline>
    <contour>
      <point x="212.0" y="-34.0" type="line" smooth="yes"/>
      <point x="318.0" y="-34.0"/>
      <point x="441.0" y="80.0"/>
      <point x="441.0" y="174.0" type="qcurve" smooth="yes"/>
      <point x="441.0" y="187.0" type="line" smooth="yes"/>
      <point x="441.0" y="279.0"/>
      <point x="321.0" y="395.0"/>
      <point x="212.0" y="395.0" type="qcurve" smooth="yes"/>
      <point x="208.0" y="395.0" type="line" smooth="yes"/>
      <point x="107.0" y="395.0"/>
      <point x="-9.0" y="279.0"/>
      <point x="-9.0" y="187.0" type="qcurve" smooth="yes"/>
      <point x="-9.0" y="174.0" type="line" smooth="yes"/>
      <point x="-9.0" y="79.0"/>
      <point x="107.0" y="-34.0"/>
      <point x="208.0" y="-34.0" type="qcurve" smooth="yes"/>
    </contour>
  </outline>
</glyph>
<glyph name="question" format="2">
  <advance width="750.0"/>
  <outline>
    <contour>
      <point x="326.0" y="-46.0" type="line" smooth="yes"/>
      <point x="446.0" y="-46.0"/>
      <point x="584.0" y="77.0"/>
      <point x="584.0" y="177.0" type="qcurve" smooth="yes"/>
      <point x="584.0" y="191.0" type="line" smooth="yes"/>
      <point x="584.0" y="291.0"/>
      <point x="448.0" y="417.0"/>
      <point x="326.0" y="417.0" type="qcurve" smooth="yes"/>
      <point x="321.0" y="417.0" type="line" smooth="yes"/>
      <point x="208.0" y="417.0"/>
      <point x="80.0" y="291.0"/>
      <point x="80.0" y="191.0" type="qcurve" smooth="yes"/>
      <point x="80.0" y="177.0" type="line" smooth="yes"/>
      <point x="80.0" y="75.0"/>
      <point x="206.0" y="-46.0"/>
      <point x="321.0" y="-46.0" type="qcurve" smooth="yes"/>
    </contour>
    <contour>
      <point x="516.0" y="443.0" type="line"/>
      <point x="114.0" y="443.0" type="line"/>
      <point x="112.0" y="921.0" type="line"/>
      <point x="236.0" y="903.0"/>
      <point x="345.0" y="988.0"/>
      <point x="345.0" y="1085.0" type="qcurve" smooth="yes"/>
      <point x="345.0" y="1155.0" type="line" smooth="yes"/>
      <point x="345.0" y="1212.0"/>
      <point x="353.0" y="1216.0"/>
      <point x="366.0" y="1216.0" type="qcurve" smooth="yes"/>
      <point x="344.0" y="1216.0" type="line" smooth="yes"/>
      <point x="364.0" y="1216.0"/>
      <point x="377.0" y="1202.0"/>
      <point x="378.0" y="1170.0" type="qcurve" smooth="yes"/>
      <point x="379.0" y="1027.0" type="line"/>
      <point x="-7.0" y="1030.0" type="line"/>
      <point x="-7.0" y="1201.0" type="line" smooth="yes"/>
      <point x="-7.0" y="1343.0"/>
      <point x="188.0" y="1523.0"/>
      <point x="357.0" y="1523.0" type="qcurve" smooth="yes"/>
      <point x="389.0" y="1523.0" type="line" smooth="yes"/>
      <point x="551.0" y="1523.0"/>
      <point x="764.0" y="1364.0"/>
      <point x="764.0" y="1130.0" type="qcurve" smooth="yes"/>
      <point x="764.0" y="1035.0" type="line" smooth="yes"/>
      <point x="764.0" y="812.0"/>
      <point x="621.0" y="638.0"/>
      <point x="515.0" y="615.0" type="qcurve"/>
    </contour>
  </outline>
</glyph>
<glyph name="r" format="2">
  <advance width="467.0"/>
  <outline>
    <contour>
      <point x="36.0" y="0.0" type="line"/>
      <point x="36.0" y="1000.0" type="line"/>
      <point x="452.0" y="1000.0" type="line"/>
      <point x="452.0" y="0.0" type="line"/>
    </contour>
    <contour>
      <point x="240.0" y="672.0" type="line"/>
      <point x="282.0" y="807.0"/>
      <point x="425.0" y="1022.0"/>
      <point x="439.0" y="1022.0" type="qcurve" smooth="yes"/>
      <point x="476.0" y="1022.0"/>
      <point x="502.0" y="1019.0"/>
      <point x="507.0" y="1016.0" type="qcurve"/>
      <point x="507.0" y="641.0" type="line"/>
      <point x="497.0" y="645.0"/>
      <point x="464.0" y="650.0"/>
      <point x="426.0" y="650.0" type="qcurve" smooth="yes"/>
      <point x="399.0" y="650.0"/>
      <point x="280.0" y="594.0"/>
      <point x="248.0" y="499.0" type="qcurve"/>
    </contour>
  </outline>
</glyph>
<glyph name="t" format="2">
  <advance width="432.0"/>
  <outline>
    <contour>
      <point x="419.0" y="692.0" type="line"/>
      <point x="-10.0" y="692.0" type="line"/>
      <point x="-10.0" y="1000.0" type="line"/>
      <point x="419.0" y="1000.0" type="line"/>
    </contour>
    <contour>
      <point x="443.0" y="275.0" type="line" smooth="yes"/>
      <point x="443.0" y="302.0"/>
      <point x="461.0" y="297.0"/>
      <point x="438.0" y="297.0" type="qcurve" smooth="yes"/>
      <point x="439.0" y="297.0"/>
      <point x="442.0" y="302.0"/>
      <point x="407.0" y="288.0" type="qcurve"/>
      <point x="480.0" y="48.0" type="line"/>
      <point x="466.0" y="37.0"/>
      <point x="374.0" y="-10.0"/>
      <point x="285.0" y="-10.0" type="qcurve"/>
      <point x="174.0" y="-10.0"/>
      <point x="28.0" y="148.0"/>
      <point x="29.0" y="245.0" type="qcurve" smooth="yes"/>
      <point x="29.0" y="1213.0" type="line"/>
      <point x="443.0" y="1213.0" type="line"/>
    </contour>
  </outline>
</glyph>
<glyph name="u" format="2">
  <advance width="727.0"/>
  <outline>
    <contour>
      <point x="691.0" y="998.0" type="line"/>
      <point x="691.0" y="-2.0" type="line"/>
      <point x="277.0" y="-2.0" type="line"/>
      <point x="277.0" y="998.0" type="line"/>
    </contour>
    <contour>
      <point x="397.0" y="285.0" type="line"/>
      <point x="421.0" y="183.0"/>
      <point x="311.0" y="-7.0"/>
      <point x="194.0" y="-7.0" type="qcurve" smooth="yes"/>
      <point x="80.0" y="-7.0"/>
      <point x="24.0" y="139.0"/>
      <point x="24.0" y="247.0" type="qcurve" smooth="yes"/>
      <point x="24.0" y="998.0" type="line"/>
      <point x="438.0" y="998.0" type="line"/>
      <point x="438.0" y="275.0" type="line" smooth="yes"/>
      <point x="438.0" y="295.0"/>
      <point x="420.0" y="300.0"/>
      <point x="394.0" y="300.0" type="qcurve" smooth="yes"/>
      <point x="381.0" y="300.0"/>
      <point x="363.0" y="270.0"/>
      <point x="375.0" y="300.0" type="qcurve"/>
    </contour>
  </outline>
</glyph>
<glyph name="v" format="2">
  <advance width="641.0"/>
  <outline>
    <contour>
      <point x="130.0" y="0.0" type="line"/>
      <point x="-40.0" y="1000.0" type="line"/>
      <point x="358.0" y="1000.0" type="line"/>
      <point x="326.0" y="592.0" type="line"/>
      <point x="294.0" y="1000.0" type="line"/>
      <point x="681.0" y="1000.0" type="line"/>
      <point x="510.0" y="0.0" type="line"/>
    </contour>
  </outline>
</glyph>
<glyph name="w" format="2">
  <advance width="888.0"/>
  <outline>
    <contour>
      <point x="136.0" y="0.0" type="line"/>
      <point x="-30.0" y="1000.0" type="line"/>
      <point x="318.0" y="1000.0" type="line"/>
      <point x="304.0" y="664.0" type="line"/>
      <point x="282.0" y="1000.0" type="line"/>
      <point x="608.0" y="1000.0" type="line"/>
      <point x="609.0" y="664.0" type="line"/>
      <point x="579.0" y="1000.0" type="line"/>
      <point x="918.0" y="1000.0" type="line"/>
      <point x="768.0" y="0.0" type="line"/>
      <point x="454.0" y="0.0" type="line"/>
      <point x="451.0" y="426.0" type="line"/>
      <point x="450.0" y="0.0" type="line"/>
    </contour>
  </outline>
</glyph>
<glyph name="z" format="2">
  <advance width="572.0"/>
  <outline>
    <contour>
      <point x="574.0" y="0.0" type="line"/>
      <point x="14.0" y="0.0" type="line"/>
      <point x="9.0" y="265.0" type="line"/>
      <point x="127.0" y="698.0" type="line"/>
      <point x="32.0" y="698.0" type="line"/>
      <point x="32.0" y="1000.0" type="line"/>
      <point x="554.0" y="1000.0" type="line"/>
      <point x="554.0" y="741.0" type="line"/>
      <point x="432.0" y="297.0" type="line"/>
      <point x="574.0" y="297.0" type="line"/>
    </contour>
  </outline>
</glyph>
<glyph name="zero" format="2">
  <advance width="694.0"/>
  <outline>
    <contour>
      <point x="327.0" y="-14.0" type="line" smooth="yes"/>
      <point x="190.0" y="-14.0"/>
      <point x="31.0" y="167.0"/>
      <point x="31.0" y="339.0" type="qcurve" smooth="yes"/>
      <point x="31.0" y="1153.0" type="line" smooth="yes"/>
      <point x="31.0" y="1335.0"/>
      <point x="188.0" y="1516.0"/>
      <point x="325.0" y="1516.0" type="qcurve" smooth="yes"/>
      <point x="367.0" y="1516.0" type="line" smooth="yes"/>
      <point x="498.0" y="1516.0"/>
      <point x="663.0" y="1335.0"/>
      <point x="663.0" y="1153.0" type="qcurve" smooth="yes"/>
      <point x="663.0" y="339.0" type="line" smooth="yes"/>
      <point x="663.0" y="157.0"/>
      <point x="500.0" y="-14.0"/>
      <point x="369.0" y="-14.0" type="qcurve" smooth="yes"/>
    </contour>
    <contour>
      <point x="353.0" y="276.0" type="line" smooth="yes"/>
      <point x="291.0" y="276.0"/>
      <point x="183.0" y="153.0"/>
      <point x="183.0" y="163.0" type="qcurve" smooth="yes"/>
      <point x="183.0" y="1342.0" type="line" smooth="yes"/>
      <point x="183.0" y="1349.0"/>
      <point x="289.0" y="1216.0"/>
      <point x="353.0" y="1216.0" type="qcurve" smooth="yes"/>
      <point x="339.0" y="1216.0" type="line" smooth="yes"/>
      <point x="399.0" y="1216.0"/>
      <point x="511.0" y="1349.0"/>
      <point x="511.0" y="1342.0" type="qcurve" smooth="yes"/>
      <point x="511.0" y="163.0" type="line" smooth="yes"/>
      <point x="511.0" y="153.0"/>
      <point x="400.0" y="276.0"/>
      <point x="339.0" y="276.0" type="qcurve" smooth="yes"/>
    </contour>
  </outline>
</glyph>
